<svg width="360" height="360" viewBox="0 0 360 360" fill="none" xmlns="http://www.w3.org/2000/svg">
<rect width="360" height="360" fill="black"/>
<path d="M170 256.496C169.75 256.499 169.5 256.5 169.25 256.5C127.138 256.5 93 222.362 93 180.25C93 138.138 127.138 104 169.25 104C169.5 104 169.75 104.001 170 104.004V134.017C169.585 134.006 169.168 134 168.75 134C143.483 134 123 154.483 123 179.75C123 205.017 143.483 225.5 168.75 225.5C169.168 225.5 169.585 225.494 170 225.483V256.496Z" fill="white"/>
<path d="M33 103H63V256H33V103Z" fill="white"/>
<path d="M337.5 179.25C337.5 221.362 303.362 255.5 261.25 255.5C261.167 255.5 261.083 255.5 261 255.5V224.499C286.152 224.365 306.5 203.934 306.5 178.75C306.5 153.566 286.152 133.135 261 133.001V103C261.083 103 261.167 103 261.25 103C303.362 103 337.5 137.138 337.5 179.25Z" fill="white"/>
<path d="M201 103H231V256H201V103Z" fill="white"/>
</svg>
