<svg width="640" height="640" viewBox="0 0 640 640" fill="none" xmlns="http://www.w3.org/2000/svg">
<rect y="320" width="640" height="320" fill="black"/>
<rect width="640" height="320" fill="black"/>
<path d="M588.269 493.925C588.274 493.926 588.279 493.928 588.284 493.929L588.273 493.918C588.272 493.921 588.271 493.923 588.269 493.925Z" fill="white"/>
<path d="M588.269 493.925C575.951 491.098 562.876 489.317 549.669 489.317C527.134 489.317 506.464 493.232 491.285 499.566C490.431 499.984 489.71 500.633 489.203 501.438C488.697 502.244 488.424 503.175 488.417 504.127C488.424 504.848 488.581 505.56 488.878 506.217C490.67 511.414 487.72 517.051 473.032 520.289C456.148 523.999 444.087 538.346 435.857 548.135C433.467 550.977 431.401 553.435 429.633 555.137C420.384 563.92 394.296 569.301 398.219 564.074C398.863 563.219 399.887 561.983 401.171 560.434C406.01 554.593 414.528 544.312 420.179 533.326C423.909 526.132 427.401 521.942 431.22 517.361C433.946 514.09 436.838 510.62 440.102 505.715C440.378 505.302 440.75 504.763 441.195 504.117C444.452 499.4 451.629 489.001 453.909 480.553C455.725 474.718 456.024 467.939 456.264 462.498C456.408 459.223 456.531 456.433 456.951 454.623C457.529 452.116 458.752 448.552 460.102 444.613C462.507 437.6 465.318 429.401 465.626 423.875C465.78 421.286 460.013 423.431 453.128 425.991C447.123 428.224 440.267 430.773 435.748 430.773C430.622 430.773 425.565 429.142 420.655 427.558C416.273 426.144 412.01 424.769 407.919 424.624C402.669 424.383 398.341 426.339 394.15 428.232C389.771 430.211 385.542 432.121 380.57 431.388C378.414 431.04 376.386 430.085 374.14 429.027C370.627 427.371 366.58 425.464 360.669 425.239C355.149 425.034 349.138 426.223 341.886 427.658C331.012 429.811 317.345 432.515 298.352 431.901C267.214 430.876 238.432 392.513 234.519 386.415C229.91 379.261 224.297 379.261 218.171 384.877C212.046 390.494 204.487 386.077 202.336 382.315C202.093 381.892 201.827 381.42 201.536 380.907C196.925 372.753 186.328 354.013 170.409 349.887C147.015 343.737 135.174 362.842 136.608 377.99C137.661 388.389 142.539 393.724 147.012 398.616C149.151 400.955 151.198 403.194 152.689 405.837C153.042 406.462 153.382 407.07 153.712 407.66C157.693 414.786 160.296 419.446 168.289 422.881C174.414 425.444 176.688 429.236 174.875 434.278C173.267 438.655 166.886 439.659 162.584 439.864C153.673 440.295 147.424 437.876 142.866 434.945C137.561 431.562 133.259 426.868 128.527 418.894C123.17 410.101 114.75 406.267 104.927 406.267C100.246 406.267 95.8726 407.497 91.9803 409.506C76.5957 417.531 58.1792 422.256 38.554 422.256L16.3272 422.277C59.4083 548.844 178.911 640 319.78 640C432.314 640 531.267 581.849 588.269 493.925Z" fill="white"/>
<path d="M319.821 0C143.194 0 0.000226658 143.273 0.000226658 320.031C-0.0412074 354.809 5.59838 389.36 16.6959 422.318H38.9228C58.6401 422.318 76.9644 417.562 92.3491 409.557C96.3471 407.458 100.791 406.35 105.306 406.329C115.139 406.329 123.538 410.152 128.906 418.935C133.515 426.909 137.817 431.603 143.245 434.965C147.803 437.886 154.052 440.315 162.973 439.885C167.07 439.68 173.544 438.655 175.264 434.289C177.088 429.164 174.803 425.454 168.678 423.015C160.023 419.397 157.677 414.098 153.078 405.939C148.479 397.781 138.554 393.456 136.997 378.103C135.461 362.965 147.302 343.942 170.798 350.02C187.72 354.396 198.638 375.315 202.725 382.459C204.774 386.22 212.425 390.627 218.55 385.021C224.675 379.415 230.289 379.384 234.898 386.558C238.821 392.656 267.593 431.04 298.741 432.044C330.412 433.069 347.251 424.87 361.048 425.382C370.737 425.751 375.408 430.507 380.949 431.511C390.66 433.048 397.543 424.255 408.298 424.767C416.963 425.198 426.427 430.988 436.117 430.988C445.807 430.988 466.282 419.274 465.995 424.101C465.483 432.649 458.825 447.674 457.309 454.849C456.285 459.686 457.176 471.452 454.267 480.799C451.666 490.382 442.754 502.528 440.46 505.961C432.624 517.727 426.94 521.335 420.538 533.552C413.388 547.347 401.65 560.118 398.577 564.299C394.654 569.424 420.743 564.125 430.002 555.352C437.858 547.87 451.512 525.383 473.401 520.505C488.099 517.276 491.039 511.639 489.246 506.422C488.955 505.767 488.802 505.059 488.796 504.342C488.796 502.353 489.984 500.611 491.664 499.771C506.843 493.447 527.513 489.521 550.047 489.521C563.281 489.521 576.351 491.284 588.683 494.134C622.272 442.351 640.101 381.918 640 320.185C639.641 143.273 496.468 0 319.821 0ZM390.25 464.513C391.889 466.102 394.726 471.524 391.254 478.37C389.205 482.009 387.228 484.551 383.469 487.543C378.962 491.161 370.174 495.312 358.118 487.666C351.645 483.546 351.235 482.163 342.293 483.321C335.902 484.161 333.351 477.704 335.635 472.323C337.92 466.943 347.384 462.638 359.132 469.525C364.418 472.631 372.653 479.201 379.874 473.379C382.947 470.981 384.647 469.279 388.785 464.565C388.99 464.36 389.236 464.257 389.533 464.257C389.83 464.257 390.045 464.36 390.219 464.503" fill="black"/>
<path d="M367.88 65.9842C360.481 66.273 353.133 67.3449 345.96 69.182C335.349 71.9083 314.576 82.7109 276.064 74.0401C209.383 59.0148 199.519 92.4271 195.709 106.96L182.701 162.88C179.628 179.73 175.633 209.001 279.126 228.741C327.349 237.925 329.797 250.388 331.928 259.356C335.758 275.426 341.884 284.63 348.777 289.232C355.67 293.834 348.767 297.636 341.126 298.425C320.589 300.557 244.69 278.768 199.796 253.247C163.055 230.771 162.451 210.549 170.86 193.392C115.365 187.386 73.7072 198.598 66.1583 224.888C53.2012 270.004 165.278 347.058 292.903 385.728C426.847 426.315 564.613 397.976 579.926 313.738C586.87 275.467 554.667 247.159 500.339 234.901C497.164 245.529 492.657 259.11 472.684 269.39C469.775 270.886 468.669 268.447 470 266.141C477.559 253.278 478.911 250.049 481.093 244.986C484.166 237.566 485.774 226.999 479.659 205.014C467.624 161.701 442.539 103.814 424.297 85.0272C411.084 71.4368 389.861 65.1746 367.9 66.0047L367.88 65.9842ZM373.902 80.8251L375.726 80.8353C396.211 81.2965 412.641 89.4446 412.395 99.0379C412.149 108.631 395.341 116.051 374.835 115.58C368.669 115.469 362.542 114.573 356.602 112.915C355.967 112.751 355.517 112.218 355.517 111.583C355.517 110.947 355.967 110.404 356.623 110.25C369.406 107.278 378.051 102.461 377.436 97.8694C376.637 91.8019 359.901 88.5222 340.05 90.49C337.927 90.7159 335.809 90.9927 333.7 91.3202C332.983 91.3305 332.501 90.8898 332.501 90.367C332.501 89.9571 332.737 89.6291 333.085 89.4754C340.255 85.6832 350.928 82.6904 363.158 81.44C366.845 81.0608 370.43 80.8558 373.872 80.8251H373.902ZM221.9 119.362C225.177 119.229 228.199 120.971 229.643 122.765C233.126 127.121 240.603 134.244 250.303 133.998C260.003 133.752 271.198 131.702 286.767 131.702C302.582 131.702 313.214 137.616 313.808 142.689C314.32 147.025 312.518 151.093 294.92 152.375C257.975 155.039 254.154 159.037 247.22 166.416C237.458 176.809 224.614 152.928 224.614 152.928C216.901 151.288 207.55 138.856 212.599 127.233C215.088 121.494 218.612 119.485 221.889 119.362H221.9Z" fill="white"/>
<path d="M0 422.5C0 422.5 33 422 33 422.5C33 423 391 640 391 640H0V422.5Z" fill="white"/>
<path d="M541 494H588L640 516V640H319L541 494Z" fill="white"/>
<path fill-rule="evenodd" clip-rule="evenodd" d="M640 510.178C625.173 503.663 588 494 588 494V500.986C588 500.986 610.893 516.953 639.759 515.955C639.84 515.952 639.92 515.949 640 515.946V510.178Z" fill="white"/>
</svg>
